<svg width="24" height="24" viewBox="0 0 24 24" fill="none" xmlns="http://www.w3.org/2000/svg">
<g clip-path="url(#clip0_1050_2983)">
<path d="M10.5 12C10.5 12.3978 10.658 12.7794 10.9393 13.0607C11.2206 13.342 11.6022 13.5 12 13.5C12.3978 13.5 12.7794 13.342 13.0607 13.0607C13.342 12.7794 13.5 12.3978 13.5 12C13.5 11.6022 13.342 11.2206 13.0607 10.9393C12.7794 10.658 12.3978 10.5 12 10.5C11.6022 10.5 11.2206 10.658 10.9393 10.9393C10.658 11.2206 10.5 11.6022 10.5 12Z" fill="#3A4B53"/>
<path d="M10.5 19C10.5 19.3978 10.658 19.7794 10.9393 20.0607C11.2206 20.342 11.6022 20.5 12 20.5C12.3978 20.5 12.7794 20.342 13.0607 20.0607C13.342 19.7794 13.5 19.3978 13.5 19C13.5 18.6022 13.342 18.2206 13.0607 17.9393C12.7794 17.658 12.3978 17.5 12 17.5C11.6022 17.5 11.2206 17.658 10.9393 17.9393C10.658 18.2206 10.5 18.6022 10.5 19Z" fill="#3A4B53"/>
<path d="M10.5 5C10.5 5.39782 10.658 5.77936 10.9393 6.06066C11.2206 6.34196 11.6022 6.5 12 6.5C12.3978 6.5 12.7794 6.34196 13.0607 6.06066C13.342 5.77936 13.5 5.39782 13.5 5C13.5 4.60218 13.342 4.22064 13.0607 3.93934C12.7794 3.65804 12.3978 3.5 12 3.5C11.6022 3.5 11.2206 3.65804 10.9393 3.93934C10.658 4.22064 10.5 4.60218 10.5 5Z" fill="#3A4B53"/>
</g>
<defs>
<clipPath id="clip0_1050_2983">
<rect width="24" height="24" fill="white"/>
</clipPath>
</defs>
</svg>
